# xmcd
#
# Track frame offsets:
#	150
#	24623
#	67513
#	88302
#	119643
#	133752
#	149647
#	187939
#	224843
#	266018
#	283405
#	304794
#	332404
#
# Disc length: 4798 seconds
# Revision: 1
# Processed by: cddbd v1.5.2PL0 Copyright (c) Steve Scherf et al.
# Submitted via: dBpowerAMP V12.0
#
DISCID=d312bc0d
DTITLE=RonnieEarl,AKARonaldHorvath,Queens,NYC&TheBroadcasters - Just for Today
DYEAR=2013
DGENRE=Blues
TTITLE0=The Big Train
TTITLE1=Blues for Celie
TTITLE2=Miracle
TTITLE3=Heart of Glass
TTITLE4=Rush Hour
TTITLE5=Vernice's Boogie
TTITLE6=Blues for Hubert Sumlin
TTITLE7=Equinox
TTITLE8=Ain't Nobody's Business
TTITLE9=Robert Nighthawk Stomp
TTITLE10=Jukein'
TTITLE11=I'd Rather Go Blind
TTITLE12=Pastorale
EXTD=
EXTT0=
EXTT1=
EXTT2=
EXTT3=
EXTT4=
EXTT5=
EXTT6=
EXTT7=
EXTT8=
EXTT9=
EXTT10=
EXTT11=
EXTT12=
PLAYORDER=
